<svg xmlns="http://www.w3.org/2000/svg" xmlns:xlink="http://www.w3.org/1999/xlink" width="1920" zoomAndPan="magnify" viewBox="0 0 1440 809.999993" height="1080" preserveAspectRatio="xMidYMid meet" version="1.0"><defs><g/><clipPath id="6c67620455"><path d="M 451.367188 26.863281 L 1168 26.863281 L 1168 274 L 451.367188 274 Z M 451.367188 26.863281 " clip-rule="nonzero"/></clipPath><clipPath id="733e5145b8"><path d="M 998 171 L 1168.367188 171 L 1168.367188 320.113281 L 998 320.113281 Z M 998 171 " clip-rule="nonzero"/></clipPath></defs><path fill="#283d5b" d="M 1145.28125 607.921875 C 1122.207031 614.824219 1097.652344 622.699219 1082.691406 641.578125 C 1075.398438 650.789062 1071.027344 661.90625 1066.757812 672.847656 C 1053.636719 706.453125 1044.625 741.007812 1046.507812 777.019531 C 1046.660156 779.855469 1046.980469 782.890625 1048.773438 785.089844 C 1050.769531 787.523438 1054.066406 788.367188 1057.132812 789.054688 C 1078.652344 793.953125 1095.921875 799.175781 1117.878906 801.378906 C 1134.320312 803.03125 1151.402344 798.179688 1167.917969 798.3125 C 1207.804688 798.628906 1247.691406 798.945312 1287.578125 799.265625 C 1295.671875 799.328125 1303.785156 799.394531 1311.824219 798.484375 C 1333.992188 796 1354.523438 791.226562 1376.824219 790.609375 C 1389.84375 790.25 1405.4375 792.003906 1413.347656 781.652344 C 1418.710938 774.632812 1417.945312 764.796875 1416.257812 756.121094 C 1411.199219 730.066406 1400.039062 705.226562 1383.941406 684.121094 C 1383.972656 684.128906 1209.371094 491.988281 1145.28125 607.921875 Z M 1145.28125 607.921875 " fill-opacity="1" fill-rule="nonzero"/><path fill="#f3ad20" d="M 1403.566406 520.574219 C 1411.59375 490.585938 1408.386719 447.816406 1402.996094 417.238281 C 1401.714844 409.976562 1400.128906 402.332031 1395.175781 396.855469 C 1388.265625 389.222656 1372.78125 386.363281 1370.304688 376.375 L 1369.847656 378.488281 C 1365.433594 367.589844 1359.757812 357.523438 1352.378906 349.410156 C 1336.859375 332.355469 1315.710938 321.214844 1293.710938 314.359375 C 1257.863281 303.1875 1215.953125 303.671875 1185.902344 326.179688 C 1167.449219 340.011719 1155.335938 358.597656 1149.113281 379.878906 L 1148.261719 373.921875 C 1134.089844 388.445312 1123.214844 403.1875 1116.183594 422.230469 C 1110.773438 436.898438 1110.234375 463.929688 1111.847656 479.480469 C 1113.269531 493.160156 1116.304688 506.664062 1120.882812 519.632812 C 1124.441406 529.730469 1128.929688 539.480469 1132.875 549.4375 C 1152.554688 599.136719 1154.808594 654.582031 1146.191406 707.339844 C 1144.976562 714.796875 1143.464844 722.386719 1144.601562 729.867188 C 1145.742188 737.347656 1150.199219 744.839844 1157.371094 747.238281 C 1164.414062 749.59375 1172.398438 746.40625 1177.601562 741.082031 C 1182.792969 735.773438 1185.714844 728.675781 1188.179688 721.664062 C 1209.832031 660.046875 1204.222656 592.214844 1173.351562 534.859375 C 1173.425781 534.945312 1173.515625 535.054688 1173.589844 535.140625 C 1185.671875 547.804688 1190.425781 556.292969 1199.722656 571.109375 C 1208.363281 584.878906 1213.664062 600.507812 1217.300781 616.34375 C 1220.421875 629.96875 1222.5 643.96875 1227.890625 656.835938 L 1227.800781 656.835938 C 1224.320312 669.761719 1221.84375 676.167969 1222.632812 689.53125 C 1223.421875 702.890625 1228.109375 716.453125 1237.734375 725.75 C 1243.507812 731.324219 1251.667969 735.3125 1259.484375 733.472656 C 1265.058594 732.15625 1269.539062 728.171875 1273.746094 724.28125 C 1283.796875 714.996094 1293.820312 705.390625 1300.960938 693.703125 C 1308.101562 682.015625 1312.601562 670.40625 1309.667969 657.035156 L 1309.613281 657.035156 C 1310.773438 654.808594 1311.890625 652.554688 1312.875 650.242188 C 1316.367188 642.019531 1318.832031 633.355469 1320.179688 624.515625 C 1322.632812 608.515625 1321.496094 591.832031 1326.742188 576.519531 C 1326.816406 576.28125 1326.949219 576.0625 1327.023438 575.832031 L 1323.804688 590.695312 C 1316.6875 633.453125 1331.078125 676.550781 1345.257812 717.515625 C 1347.515625 724.03125 1350.40625 731.257812 1356.757812 733.953125 C 1363.714844 736.898438 1372.082031 732.703125 1376.144531 726.332031 C 1380.207031 719.96875 1380.90625 712.058594 1381.015625 704.511719 C 1381.574219 666.59375 1370.121094 628.238281 1378.214844 591.1875 C 1383.558594 566.75 1397.09375 544.78125 1403.566406 520.574219 Z M 1403.566406 520.574219 " fill-opacity="1" fill-rule="nonzero"/><path fill="#f58420" d="M 1278.496094 581.472656 C 1277.851562 569.839844 1273.339844 561.964844 1268.707031 551.277344 C 1267.546875 548.59375 1266.132812 545.820312 1263.613281 544.34375 C 1262.082031 543.445312 1260.285156 543.117188 1258.523438 542.820312 C 1253.320312 541.945312 1247.648438 541.230469 1243.027344 543.796875 C 1236.640625 547.332031 1234.800781 555.710938 1235.195312 563.003906 C 1235.71875 572.785156 1239.027344 582.171875 1242.292969 591.40625 C 1245.324219 599.980469 1248.359375 608.558594 1251.390625 617.144531 C 1252.925781 621.492188 1254.765625 626.203125 1258.785156 628.46875 C 1264.523438 631.6875 1272.15625 628.042969 1275.5625 622.414062 C 1278.96875 616.78125 1279.277344 609.871094 1279.484375 603.300781 C 1279.746094 594.789062 1278.234375 589.960938 1278.496094 581.472656 Z M 1278.496094 581.472656 " fill-opacity="1" fill-rule="nonzero"/><path fill="#010101" d="M 1263.429688 635.105469 C 1260.929688 635.105469 1258.445312 634.527344 1256.113281 633.222656 C 1250.078125 629.816406 1247.765625 623.277344 1246.234375 618.941406 L 1237.132812 593.203125 C 1233.769531 583.707031 1230.308594 573.871094 1229.742188 563.269531 C 1229.128906 552.085938 1233.113281 543.007812 1240.386719 538.976562 C 1246.496094 535.589844 1253.429688 536.390625 1259.441406 537.386719 C 1261.371094 537.714844 1263.976562 538.15625 1266.417969 539.609375 C 1270.195312 541.8125 1272.15625 545.460938 1273.734375 549.050781 L 1276.078125 554.296875 C 1279.835938 562.621094 1283.382812 570.496094 1283.984375 581.132812 C 1283.996094 581.296875 1283.996094 581.460938 1283.996094 581.625 C 1283.863281 585.589844 1284.171875 588.710938 1284.457031 591.84375 C 1284.785156 595.28125 1285.125 598.855469 1284.96875 603.441406 C 1284.761719 610.015625 1284.511719 618.207031 1280.261719 625.207031 C 1276.8125 630.890625 1270.132812 635.105469 1263.429688 635.105469 Z M 1250.878906 547.476562 C 1248.917969 547.476562 1247.132812 547.761719 1245.675781 548.570312 C 1241.535156 550.859375 1240.375 557.375 1240.660156 562.6875 C 1241.152344 571.722656 1244.351562 580.792969 1247.449219 589.554688 L 1256.550781 615.292969 C 1257.855469 618.996094 1259.210938 622.402344 1261.457031 623.683594 C 1264.414062 625.335938 1268.914062 622.785156 1270.863281 619.566406 C 1273.625 615.019531 1273.820312 608.699219 1273.984375 603.113281 C 1274.117188 599.136719 1273.8125 596.015625 1273.527344 592.882812 C 1273.207031 589.5 1272.867188 586.015625 1273.011719 581.546875 C 1272.484375 573.058594 1269.648438 566.761719 1266.058594 558.832031 L 1263.660156 553.445312 C 1262.878906 551.648438 1261.929688 549.710938 1260.820312 549.074219 C 1260.097656 548.648438 1258.761719 548.417969 1257.582031 548.21875 C 1255.324219 547.824219 1253.003906 547.476562 1250.878906 547.476562 Z M 1250.878906 547.476562 " fill-opacity="1" fill-rule="nonzero"/><path fill="#010101" d="M 1231.242188 513.09375 C 1229.742188 513.09375 1228.273438 512.734375 1226.96875 511.988281 C 1225.667969 511.242188 1224.726562 509.996094 1224.375 508.550781 C 1224.113281 507.464844 1223.488281 504.96875 1224.769531 502.394531 C 1225.019531 501.867188 1225.359375 501.398438 1225.734375 500.960938 C 1227.34375 498.167969 1230.660156 496.875 1233.957031 497.773438 C 1237.726562 498.8125 1240.15625 502.195312 1239.761719 505.855469 C 1239.476562 508.496094 1237.824219 510.839844 1235.347656 512.097656 C 1234.066406 512.777344 1232.644531 513.09375 1231.242188 513.09375 Z M 1231.242188 513.09375 " fill-opacity="1" fill-rule="nonzero"/><path fill="#010101" d="M 1277.238281 509.941406 C 1277.007812 509.941406 1276.777344 509.929688 1276.546875 509.898438 L 1274.019531 509.578125 C 1273.109375 509.457031 1272.246094 509.128906 1271.511719 508.59375 C 1269.5625 507.191406 1268.542969 504.792969 1268.859375 502.363281 C 1269.113281 500.378906 1270.207031 498.660156 1271.796875 497.617188 C 1272.089844 497.355469 1272.417969 497.113281 1272.769531 496.929688 C 1275.925781 495.15625 1279.878906 496.226562 1281.980469 499.414062 C 1284.0625 502.613281 1283.449219 506.675781 1280.535156 508.855469 C 1279.570312 509.558594 1278.421875 509.941406 1277.238281 509.941406 Z M 1277.238281 509.941406 " fill-opacity="1" fill-rule="nonzero"/><path fill="#febf10" d="M 1208.988281 451.398438 C 1206.042969 449.65625 1203.71875 447.839844 1200.476562 446.710938 C 1196.625 445.363281 1192.363281 444.476562 1188.496094 445.8125 C 1185.125 446.972656 1182.496094 449.703125 1180.558594 452.703125 C 1176.867188 458.429688 1175.726562 466.953125 1180.863281 471.429688 C 1182.101562 472.503906 1183.589844 473.25 1185.113281 473.863281 C 1192.328125 476.796875 1201.265625 476.917969 1207.3125 472 C 1213.378906 467.082031 1215.273438 456.011719 1208.988281 451.398438 Z M 1208.988281 451.398438 " fill-opacity="1" fill-rule="nonzero"/><path fill="#febf10" d="M 1316.324219 443.339844 C 1309.808594 439.527344 1304.046875 437.542969 1297.488281 441.277344 C 1290.929688 445.011719 1287.269531 453.226562 1288.890625 460.597656 C 1290.160156 466.394531 1294.609375 471.476562 1300.28125 473.183594 C 1304.628906 474.496094 1309.328125 473.882812 1313.71875 472.722656 C 1319.851562 471.101562 1326.378906 467.730469 1328.085938 461.617188 C 1329.238281 457.476562 1327.792969 452.886719 1325 449.613281 C 1322.21875 446.316406 1320.027344 445.507812 1316.324219 443.339844 Z M 1316.324219 443.339844 " fill-opacity="1" fill-rule="nonzero"/><path fill="#010101" d="M 1212.230469 446.984375 C 1212.074219 446.875 1211.933594 446.777344 1211.769531 446.6875 L 1209.613281 445.351562 C 1207.464844 443.984375 1205.253906 442.570312 1202.296875 441.542969 C 1198.417969 440.183594 1192.582031 438.605469 1186.722656 440.632812 C 1182.550781 442.078125 1178.925781 445.132812 1175.96875 449.734375 C 1170.910156 457.597656 1169.746094 469 1177.269531 475.539062 C 1179.222656 477.234375 1181.390625 478.242188 1183.066406 478.933594 C 1187.140625 480.585938 1191.3125 481.410156 1195.285156 481.410156 C 1201.125 481.410156 1206.578125 479.667969 1210.773438 476.261719 C 1215.535156 472.394531 1218.503906 465.800781 1218.351562 459.449219 C 1218.230469 454.214844 1216.039062 449.789062 1212.230469 446.984375 Z M 1203.882812 467.742188 C 1201.027344 470.074219 1197.28125 470.554688 1193.710938 470.238281 C 1193.675781 470.039062 1193.722656 469.855469 1193.667969 469.65625 C 1192.394531 465.210938 1188.265625 461.96875 1183.625 461.78125 C 1183.40625 461.78125 1183.183594 461.878906 1182.964844 461.914062 C 1183.175781 459.800781 1183.972656 457.5 1185.179688 455.636719 C 1186.285156 453.941406 1188.070312 451.738281 1190.292969 450.960938 C 1190.984375 450.730469 1191.78125 450.609375 1192.667969 450.609375 C 1194.3125 450.609375 1196.304688 451.015625 1198.691406 451.847656 C 1200.445312 452.472656 1201.902344 453.390625 1203.753906 454.5625 L 1205.886719 455.890625 C 1207.09375 456.863281 1207.386719 458.472656 1207.421875 459.691406 C 1207.476562 462.703125 1206.019531 466.007812 1203.882812 467.742188 Z M 1203.882812 467.742188 " fill-opacity="1" fill-rule="nonzero"/><path fill="#010101" d="M 1329.183594 446.066406 C 1326.28125 442.648438 1323.707031 441.214844 1320.96875 439.679688 L 1319.097656 438.605469 C 1319.085938 438.605469 1319.085938 438.605469 1319.085938 438.605469 C 1312.273438 434.621094 1304.046875 431.234375 1294.78125 436.515625 C 1286.140625 441.433594 1281.410156 452.054688 1283.546875 461.761719 C 1285.253906 469.613281 1291.203125 476.140625 1298.714844 478.417969 C 1300.839844 479.066406 1303.105469 479.382812 1305.558594 479.382812 C 1308.484375 479.382812 1311.648438 478.921875 1315.109375 478.015625 C 1324.910156 475.441406 1331.382812 470.128906 1333.367188 463.085938 C 1334.933594 457.457031 1333.3125 450.929688 1329.183594 446.066406 Z M 1314.300781 466.796875 C 1313.882812 465.582031 1313.105469 464.488281 1311.910156 463.796875 C 1308.660156 461.914062 1304.945312 460.894531 1301.179688 460.863281 C 1301.167969 460.863281 1301.144531 460.863281 1301.136719 460.863281 C 1299.042969 460.863281 1297.269531 462.078125 1296.347656 463.808594 C 1295.375 462.492188 1294.585938 461.015625 1294.234375 459.40625 C 1293.117188 454.34375 1295.691406 448.59375 1300.191406 446.019531 C 1301.683594 445.179688 1303.085938 444.738281 1304.605469 444.738281 C 1306.996094 444.738281 1309.699219 445.800781 1313.542969 448.058594 L 1315.601562 449.230469 C 1318 450.554688 1319.195312 451.234375 1320.816406 453.140625 C 1322.621094 455.242188 1323.390625 457.980469 1322.808594 460.117188 C 1321.8125 463.710938 1317.421875 465.746094 1314.300781 466.796875 Z M 1314.300781 466.796875 " fill-opacity="1" fill-rule="nonzero"/><path fill="#010101" d="M 1421.667969 755.082031 C 1416.445312 728.238281 1404.925781 702.550781 1388.320312 680.8125 C 1387.566406 679.824219 1386.515625 679.257812 1385.398438 678.949219 C 1384.871094 672.75 1384.246094 666.585938 1383.613281 660.515625 C 1381.105469 636.835938 1378.761719 614.472656 1383.570312 592.402344 C 1386.328125 579.761719 1391.3125 567.933594 1396.578125 555.394531 C 1401.089844 544.671875 1405.769531 533.585938 1408.867188 522 C 1419.019531 484.027344 1411.070312 431.5 1408.386719 416.316406 C 1406.960938 408.160156 1405.066406 399.660156 1399.242188 393.207031 C 1395.867188 389.484375 1391.269531 386.941406 1386.832031 384.480469 C 1381.53125 381.53125 1376.539062 378.773438 1375.617188 375.082031 C 1375.234375 373.539062 1374.203125 372.332031 1372.902344 371.609375 C 1368.574219 362.046875 1363.199219 353.175781 1356.429688 345.738281 C 1341.644531 329.507812 1321.101562 317.195312 1295.339844 309.148438 C 1252.992188 295.949219 1210.847656 300.679688 1182.625 321.808594 C 1166.394531 333.964844 1154.460938 349.878906 1147.121094 368.683594 C 1146.101562 368.902344 1145.128906 369.308594 1144.351562 370.097656 C 1127.921875 386.933594 1117.648438 402.429688 1111.046875 420.347656 C 1104.878906 437.039062 1104.925781 465.824219 1106.402344 480.050781 C 1107.871094 494.167969 1111.003906 508.113281 1115.722656 521.453125 C 1118.011719 527.9375 1120.660156 534.277344 1123.324219 540.609375 C 1124.835938 544.222656 1126.335938 547.824219 1127.78125 551.449219 C 1134.199219 567.660156 1138.820312 585.042969 1141.753906 603.257812 C 1115.929688 611.054688 1093.359375 619.292969 1078.386719 638.171875 C 1070.546875 648.097656 1066.023438 659.664062 1061.652344 670.84375 C 1045.90625 711.214844 1039.355469 745.027344 1041.042969 777.304688 C 1041.25 781.179688 1041.800781 785.210938 1044.527344 788.550781 C 1047.800781 792.550781 1052.683594 793.667969 1055.925781 794.390625 C 1061.226562 795.59375 1066.277344 796.832031 1071.214844 798.027344 C 1086.25 801.671875 1100.457031 805.125 1117.34375 806.820312 C 1119.929688 807.085938 1122.535156 807.195312 1125.121094 807.195312 C 1132.457031 807.195312 1139.773438 806.304688 1146.914062 805.453125 C 1154.195312 804.566406 1161.105469 803.917969 1167.886719 803.789062 L 1287.554688 804.738281 C 1295.660156 804.828125 1304.09375 804.871094 1312.449219 803.929688 C 1320.617188 803.007812 1328.570312 801.792969 1336.453125 800.578125 C 1350.1875 798.464844 1363.164062 796.472656 1376.988281 796.085938 C 1378.890625 796.03125 1380.851562 796.023438 1382.824219 796.023438 C 1395.253906 795.96875 1409.347656 795.921875 1417.714844 784.972656 C 1424.691406 775.859375 1423.3125 763.546875 1421.667969 755.082031 Z M 1381.519531 394.050781 C 1385.355469 396.164062 1388.980469 398.179688 1391.125 400.558594 C 1395.003906 404.839844 1396.394531 411.34375 1397.609375 418.203125 C 1400.183594 432.835938 1407.871094 483.371094 1398.289062 519.171875 C 1395.386719 530.015625 1390.863281 540.761719 1386.492188 551.144531 C 1381.257812 563.585938 1375.847656 576.445312 1372.878906 590.070312 C 1367.675781 613.859375 1370.25 638.164062 1372.726562 661.667969 C 1374.214844 675.761719 1375.75 690.339844 1375.550781 704.480469 C 1375.453125 711.195312 1374.894531 718.148438 1371.53125 723.429688 C 1368.902344 727.566406 1363.210938 730.753906 1358.917969 728.960938 C 1354.699219 727.175781 1352.421875 721.445312 1350.460938 715.75 C 1337.199219 677.480469 1322.164062 634.097656 1329.226562 591.636719 C 1329.3125 591.132812 1329.226562 590.648438 1329.171875 590.167969 C 1329.808594 586.125 1330.628906 582.171875 1331.941406 578.351562 C 1334.867188 569.816406 1339.804688 562.128906 1345.03125 553.992188 L 1347.394531 550.277344 C 1369.40625 515.613281 1381.773438 483.765625 1385.191406 452.878906 C 1387.160156 435.070312 1385.859375 413.734375 1380.566406 393.492188 C 1380.863281 393.667969 1381.203125 393.863281 1381.519531 394.050781 Z M 1189.1875 330.570312 C 1204.933594 318.761719 1225.722656 312.695312 1248.535156 312.695312 C 1262.507812 312.695312 1277.261719 314.972656 1292.078125 319.59375 C 1315.964844 327.042969 1334.878906 338.3125 1348.324219 353.109375 C 1371.027344 378.058594 1377.730469 420.601562 1374.28125 451.683594 C 1371.050781 480.851562 1359.222656 511.1875 1338.128906 544.417969 L 1335.785156 548.066406 C 1330.441406 556.402344 1324.910156 565.011719 1321.558594 574.789062 C 1317.96875 585.273438 1317.191406 596.191406 1316.433594 606.75 C 1316.03125 612.433594 1315.625 618.121094 1314.769531 623.726562 C 1313.476562 632.136719 1311.144531 640.351562 1307.828125 648.140625 C 1302.976562 659.5625 1296.644531 668.347656 1289.042969 674.230469 C 1280.347656 680.941406 1269.691406 683.734375 1260.484375 681.710938 C 1249.597656 679.300781 1239.511719 669.78125 1233.488281 656.234375 C 1229.25 646.695312 1227.125 636.433594 1224.878906 625.578125 C 1224.167969 622.09375 1223.433594 618.601562 1222.644531 615.152344 C 1218.308594 596.234375 1212.328125 580.878906 1204.367188 568.21875 L 1201.320312 563.355469 C 1193.6875 551.101562 1188.640625 542.996094 1177.554688 531.398438 C 1177.554688 531.386719 1177.554688 531.386719 1177.554688 531.386719 C 1171.257812 524.78125 1163.550781 514.113281 1161.535156 506.269531 C 1154.183594 477.71875 1147.328125 435.921875 1150.089844 404.28125 C 1152.804688 373.1875 1166.320312 347.699219 1189.1875 330.570312 Z M 1229.578125 671.613281 C 1237.035156 682.554688 1247.023438 689.945312 1258.128906 692.398438 C 1260.855469 693 1263.667969 693.296875 1266.515625 693.296875 C 1276.539062 693.296875 1287.007812 689.652344 1295.746094 682.894531 C 1298.410156 680.832031 1300.882812 678.414062 1303.261719 675.816406 C 1301.835938 680.472656 1299.65625 685.367188 1296.273438 690.886719 C 1289.613281 701.796875 1280.0625 711.03125 1270.03125 720.308594 C 1265.980469 724.050781 1262.289062 727.230469 1258.238281 728.179688 C 1252.289062 729.671875 1245.675781 725.835938 1241.546875 721.851562 C 1233.660156 714.226562 1228.886719 702.652344 1228.097656 689.246094 C 1227.683594 682.027344 1228.328125 677.023438 1229.578125 671.613281 Z M 1133.433594 536.390625 C 1130.859375 530.234375 1128.273438 524.101562 1126.0625 517.828125 C 1121.636719 505.273438 1118.679688 492.1875 1117.300781 478.921875 C 1115.820312 464.707031 1116.105469 438.3125 1121.320312 424.136719 C 1125.710938 412.242188 1132.019531 401.433594 1140.945312 390.414062 C 1140.167969 394.609375 1139.566406 398.902344 1139.179688 403.316406 C 1136.289062 436.351562 1143.355469 479.558594 1150.921875 509 C 1153.515625 519.0625 1161.992188 530.664062 1168.828125 538.011719 C 1198.792969 594.054688 1204.070312 659.9375 1183.011719 719.867188 C 1180.425781 727.238281 1177.839844 733.011719 1173.679688 737.273438 C 1170.152344 740.898438 1164.304688 743.777344 1159.101562 742.058594 C 1153.945312 740.339844 1150.824219 734.28125 1150.023438 729.046875 C 1149.113281 723.144531 1150.15625 716.945312 1151.238281 710.371094 L 1151.589844 708.246094 C 1151.949219 706.035156 1152.148438 703.855469 1152.476562 701.65625 C 1153.253906 700.351562 1153.429688 698.871094 1153.035156 697.460938 C 1160.351562 642.914062 1155.300781 591.21875 1137.964844 547.429688 C 1136.507812 543.730469 1134.964844 540.058594 1133.433594 536.390625 Z M 1058.347656 783.734375 C 1056.574219 783.328125 1053.902344 782.714844 1053.023438 781.640625 C 1052.179688 780.613281 1052.039062 778.003906 1051.972656 776.746094 C 1050.375 746.089844 1056.691406 713.714844 1071.851562 674.84375 C 1075.925781 664.414062 1080.152344 653.628906 1086.976562 644.984375 C 1099.679688 628.960938 1119.90625 621.382812 1143.199219 614.296875 C 1146.367188 640.648438 1145.992188 668.609375 1141.996094 697.46875 C 1136.707031 703.714844 1131.515625 710.089844 1126.621094 716.496094 C 1111.617188 736.15625 1094.488281 762.332031 1092.484375 791.71875 C 1086.242188 790.382812 1080.085938 788.925781 1073.800781 787.390625 C 1068.816406 786.1875 1063.714844 784.949219 1058.347656 783.734375 Z M 1145.597656 794.585938 C 1136.105469 795.738281 1127.132812 796.820312 1118.4375 795.945312 C 1113.160156 795.410156 1108.175781 794.652344 1103.269531 793.796875 C 1104.605469 766.789062 1121.035156 741.882812 1135.335938 723.144531 C 1136.519531 721.589844 1137.835938 720.085938 1139.050781 718.542969 C 1138.667969 722.53125 1138.578125 726.570312 1139.214844 730.699219 C 1140.8125 741.09375 1147.253906 749.625 1155.652344 752.429688 C 1157.789062 753.144531 1160.042969 753.492188 1162.324219 753.492188 C 1169.078125 753.492188 1176.121094 750.449219 1181.519531 744.917969 C 1186.699219 739.605469 1189.820312 732.933594 1192.308594 726.265625 C 1193.164062 744.160156 1190.214844 762.015625 1187.050781 778.09375 C 1186.03125 783.21875 1184.828125 788.597656 1182.332031 792.957031 L 1167.984375 792.84375 C 1160.449219 792.988281 1152.914062 793.710938 1145.597656 794.585938 Z M 1311.222656 793.042969 C 1303.511719 793.917969 1295.441406 793.863281 1287.644531 793.789062 L 1194.3125 793.042969 C 1195.953125 788.792969 1196.953125 784.421875 1197.785156 780.207031 C 1202.800781 754.816406 1206.414062 727.84375 1199.800781 702.214844 C 1210.785156 660.046875 1210.257812 618.21875 1197.269531 577.914062 C 1203.457031 588.808594 1208.339844 601.746094 1211.976562 617.570312 C 1212.753906 620.96875 1213.457031 624.375 1214.15625 627.78125 C 1216.171875 637.503906 1218.339844 647.484375 1222.074219 657.035156 L 1221.210938 660.167969 C 1218.4375 670.144531 1216.433594 677.339844 1217.167969 689.871094 C 1218.109375 706.023438 1224.066406 720.164062 1233.925781 729.703125 C 1240.417969 735.980469 1248.214844 739.417969 1255.597656 739.417969 C 1257.351562 739.417969 1259.070312 739.222656 1260.757812 738.828125 C 1267.941406 737.128906 1273.449219 732.046875 1277.46875 728.335938 C 1288.089844 718.523438 1298.234375 708.695312 1305.625 696.59375 C 1311.660156 686.738281 1318.023438 673.472656 1315.296875 657.777344 C 1316.171875 656.003906 1317.101562 654.304688 1317.902344 652.410156 C 1318.582031 650.8125 1319.03125 649.125 1319.632812 647.492188 C 1321.011719 655.390625 1322.699219 663.222656 1324.734375 670.933594 C 1318.339844 708.3125 1311.835938 746.945312 1319.765625 788.082031 C 1319.085938 789.273438 1318.964844 790.632812 1319.085938 791.9375 C 1316.46875 792.308594 1313.90625 792.746094 1311.222656 793.042969 Z M 1409.019531 778.332031 C 1403.929688 785.003906 1393.667969 785.035156 1382.792969 785.082031 C 1380.730469 785.082031 1378.671875 785.089844 1376.691406 785.144531 C 1362.191406 785.550781 1348.25 787.6875 1334.789062 789.769531 C 1333.5625 789.953125 1332.292969 790.097656 1331.078125 790.28125 C 1331.078125 789.648438 1331.121094 789.023438 1330.988281 788.355469 C 1324.332031 756 1327.101562 725.835938 1331.898438 695.007812 C 1334.582031 703.285156 1337.351562 711.433594 1340.089844 719.332031 C 1342.742188 727.007812 1346.265625 735.496094 1354.632812 739.046875 C 1356.96875 740.03125 1359.332031 740.46875 1361.664062 740.46875 C 1369.515625 740.46875 1376.878906 735.441406 1380.765625 729.320312 C 1385.605469 721.71875 1386.382812 712.574219 1386.492188 704.632812 C 1386.527344 702.257812 1386.449219 699.878906 1386.394531 697.492188 C 1398.234375 715.609375 1406.785156 735.925781 1410.902344 757.164062 C 1412.917969 767.46875 1412.328125 773.996094 1409.019531 778.332031 Z M 1409.019531 778.332031 " fill-opacity="1" fill-rule="nonzero"/><g clip-path="url(#6c67620455)"><path fill="#ff3131" d="M 514.976562 26.863281 L 1104.328125 26.863281 C 1105.367188 26.863281 1106.40625 26.886719 1107.445312 26.9375 C 1108.484375 26.988281 1109.523438 27.066406 1110.558594 27.167969 C 1111.59375 27.269531 1112.625 27.398438 1113.652344 27.550781 C 1114.683594 27.703125 1115.707031 27.878906 1116.726562 28.082031 C 1117.746094 28.285156 1118.761719 28.511719 1119.769531 28.765625 C 1120.777344 29.019531 1121.78125 29.296875 1122.777344 29.597656 C 1123.773438 29.898438 1124.757812 30.226562 1125.738281 30.574219 C 1126.71875 30.925781 1127.6875 31.300781 1128.648438 31.699219 C 1129.609375 32.097656 1130.558594 32.515625 1131.5 32.960938 C 1132.441406 33.40625 1133.371094 33.875 1134.285156 34.363281 C 1135.203125 34.855469 1136.109375 35.367188 1137 35.902344 C 1137.890625 36.4375 1138.769531 36.992188 1139.636719 37.570312 C 1140.5 38.148438 1141.351562 38.746094 1142.1875 39.363281 C 1143.023438 39.984375 1143.839844 40.625 1144.644531 41.285156 C 1145.449219 41.945312 1146.238281 42.621094 1147.007812 43.320312 C 1147.777344 44.019531 1148.53125 44.734375 1149.265625 45.472656 C 1150 46.207031 1150.71875 46.960938 1151.417969 47.730469 C 1152.117188 48.5 1152.796875 49.289062 1153.453125 50.089844 C 1154.113281 50.894531 1154.753906 51.714844 1155.375 52.550781 C 1155.992188 53.386719 1156.59375 54.234375 1157.167969 55.097656 C 1157.746094 55.964844 1158.304688 56.84375 1158.839844 57.734375 C 1159.375 58.625 1159.886719 59.53125 1160.375 60.449219 C 1160.867188 61.363281 1161.335938 62.292969 1161.777344 63.234375 C 1162.222656 64.171875 1162.644531 65.125 1163.042969 66.085938 C 1163.441406 67.042969 1163.816406 68.015625 1164.164062 68.992188 C 1164.515625 69.972656 1164.84375 70.960938 1165.144531 71.953125 C 1165.445312 72.949219 1165.722656 73.953125 1165.976562 74.960938 C 1166.230469 75.96875 1166.457031 76.984375 1166.660156 78.003906 C 1166.863281 79.023438 1167.039062 80.046875 1167.191406 81.074219 C 1167.34375 82.105469 1167.472656 83.136719 1167.574219 84.171875 C 1167.675781 85.207031 1167.753906 86.242188 1167.804688 87.28125 C 1167.855469 88.320312 1167.878906 89.359375 1167.878906 90.398438 L 1167.878906 209.871094 C 1167.878906 210.910156 1167.855469 211.949219 1167.804688 212.988281 C 1167.753906 214.027344 1167.675781 215.0625 1167.574219 216.097656 C 1167.472656 217.132812 1167.34375 218.164062 1167.191406 219.195312 C 1167.039062 220.222656 1166.863281 221.246094 1166.660156 222.265625 C 1166.457031 223.285156 1166.226562 224.300781 1165.976562 225.308594 C 1165.722656 226.316406 1165.445312 227.320312 1165.144531 228.316406 C 1164.84375 229.308594 1164.515625 230.296875 1164.164062 231.277344 C 1163.816406 232.253906 1163.441406 233.226562 1163.042969 234.1875 C 1162.644531 235.148438 1162.222656 236.097656 1161.777344 237.035156 C 1161.335938 237.976562 1160.867188 238.90625 1160.375 239.824219 C 1159.886719 240.738281 1159.375 241.644531 1158.839844 242.535156 C 1158.304688 243.429688 1157.746094 244.304688 1157.167969 245.171875 C 1156.59375 246.035156 1155.992188 246.886719 1155.375 247.71875 C 1154.753906 248.554688 1154.113281 249.375 1153.453125 250.179688 C 1152.796875 250.984375 1152.117188 251.769531 1151.417969 252.539062 C 1150.71875 253.3125 1150 254.0625 1149.265625 254.800781 C 1148.53125 255.535156 1147.777344 256.25 1147.007812 256.949219 C 1146.238281 257.648438 1145.449219 258.328125 1144.644531 258.984375 C 1143.839844 259.644531 1143.023438 260.285156 1142.1875 260.90625 C 1141.351562 261.523438 1140.5 262.121094 1139.636719 262.699219 C 1138.769531 263.277344 1137.890625 263.835938 1137 264.367188 C 1136.109375 264.902344 1135.203125 265.417969 1134.285156 265.90625 C 1133.371094 266.394531 1132.441406 266.863281 1131.5 267.308594 C 1130.558594 267.753906 1129.609375 268.175781 1128.648438 268.570312 C 1127.6875 268.96875 1126.71875 269.34375 1125.738281 269.695312 C 1124.757812 270.042969 1123.773438 270.371094 1122.777344 270.671875 C 1121.78125 270.972656 1120.777344 271.25 1119.769531 271.503906 C 1118.761719 271.757812 1117.746094 271.984375 1116.726562 272.1875 C 1115.707031 272.390625 1114.683594 272.570312 1113.652344 272.722656 C 1112.625 272.875 1111.59375 273 1110.558594 273.101562 C 1109.523438 273.203125 1108.484375 273.28125 1107.445312 273.332031 C 1106.40625 273.382812 1105.367188 273.410156 1104.328125 273.410156 L 514.976562 273.410156 C 513.933594 273.410156 512.894531 273.382812 511.855469 273.332031 C 510.816406 273.28125 509.78125 273.203125 508.746094 273.101562 C 507.710938 273 506.679688 272.875 505.648438 272.722656 C 504.621094 272.570312 503.597656 272.390625 502.578125 272.1875 C 501.554688 271.984375 500.542969 271.757812 499.53125 271.503906 C 498.523438 271.25 497.523438 270.972656 496.527344 270.671875 C 495.53125 270.371094 494.542969 270.042969 493.566406 269.695312 C 492.585938 269.34375 491.613281 268.96875 490.652344 268.570312 C 489.695312 268.175781 488.742188 267.753906 487.800781 267.308594 C 486.863281 266.863281 485.933594 266.394531 485.015625 265.90625 C 484.097656 265.417969 483.195312 264.902344 482.300781 264.367188 C 481.410156 263.835938 480.53125 263.277344 479.667969 262.699219 C 478.800781 262.121094 477.953125 261.523438 477.117188 260.90625 C 476.28125 260.285156 475.460938 259.644531 474.65625 258.984375 C 473.855469 258.328125 473.066406 257.648438 472.296875 256.949219 C 471.523438 256.25 470.773438 255.535156 470.035156 254.800781 C 469.300781 254.0625 468.585938 253.3125 467.886719 252.539062 C 467.1875 251.769531 466.507812 250.984375 465.847656 250.179688 C 465.1875 249.375 464.546875 248.554688 463.929688 247.71875 C 463.308594 246.886719 462.710938 246.035156 462.132812 245.171875 C 461.554688 244.304688 461 243.429688 460.464844 242.535156 C 459.929688 241.644531 459.417969 240.738281 458.925781 239.824219 C 458.4375 238.90625 457.96875 237.976562 457.523438 237.035156 C 457.078125 236.097656 456.65625 235.148438 456.261719 234.1875 C 455.863281 233.226562 455.488281 232.253906 455.136719 231.277344 C 454.785156 230.296875 454.460938 229.308594 454.160156 228.316406 C 453.855469 227.320312 453.578125 226.316406 453.328125 225.308594 C 453.074219 224.300781 452.847656 223.285156 452.644531 222.265625 C 452.441406 221.246094 452.261719 220.222656 452.109375 219.195312 C 451.957031 218.164062 451.832031 217.132812 451.726562 216.097656 C 451.625 215.0625 451.550781 214.027344 451.5 212.988281 C 451.449219 211.949219 451.421875 210.910156 451.421875 209.871094 L 451.421875 90.398438 C 451.421875 89.359375 451.449219 88.320312 451.5 87.28125 C 451.550781 86.242188 451.625 85.207031 451.726562 84.171875 C 451.832031 83.136719 451.957031 82.105469 452.109375 81.074219 C 452.261719 80.046875 452.441406 79.023438 452.644531 78.003906 C 452.847656 76.984375 453.074219 75.96875 453.328125 74.960938 C 453.578125 73.953125 453.855469 72.949219 454.160156 71.953125 C 454.460938 70.960938 454.785156 69.972656 455.136719 68.992188 C 455.488281 68.015625 455.863281 67.042969 456.261719 66.085938 C 456.65625 65.125 457.078125 64.171875 457.523438 63.234375 C 457.96875 62.292969 458.4375 61.363281 458.925781 60.449219 C 459.417969 59.53125 459.929688 58.625 460.464844 57.734375 C 461 56.84375 461.554688 55.964844 462.132812 55.097656 C 462.710938 54.234375 463.308594 53.386719 463.929688 52.550781 C 464.546875 51.714844 465.1875 50.894531 465.847656 50.089844 C 466.507812 49.289062 467.1875 48.5 467.886719 47.730469 C 468.585938 46.960938 469.300781 46.207031 470.035156 45.472656 C 470.773438 44.734375 471.523438 44.019531 472.296875 43.320312 C 473.066406 42.621094 473.855469 41.945312 474.65625 41.285156 C 475.460938 40.625 476.28125 39.984375 477.117188 39.363281 C 477.953125 38.746094 478.800781 38.148438 479.667969 37.570312 C 480.53125 36.992188 481.410156 36.4375 482.300781 35.902344 C 483.195312 35.367188 484.097656 34.855469 485.015625 34.363281 C 485.933594 33.875 486.863281 33.40625 487.800781 32.960938 C 488.742188 32.515625 489.695312 32.097656 490.652344 31.699219 C 491.613281 31.300781 492.585938 30.925781 493.566406 30.574219 C 494.542969 30.226562 495.53125 29.898438 496.527344 29.597656 C 497.523438 29.296875 498.523438 29.019531 499.53125 28.765625 C 500.542969 28.511719 501.554688 28.285156 502.578125 28.082031 C 503.597656 27.878906 504.621094 27.703125 505.648438 27.550781 C 506.679688 27.398438 507.710938 27.269531 508.746094 27.167969 C 509.78125 27.066406 510.816406 26.988281 511.855469 26.9375 C 512.894531 26.886719 513.933594 26.863281 514.976562 26.863281 Z M 514.976562 26.863281 " fill-opacity="1" fill-rule="nonzero"/></g><g clip-path="url(#733e5145b8)"><path fill="#ff3131" d="M 998.058594 179.460938 L 1168.273438 320.113281 L 1167.488281 171.324219 L 998.027344 172.203125 " fill-opacity="1" fill-rule="nonzero"/></g><g fill="#ffffff" fill-opacity="1"><g transform="translate(516.30252, 136.688834)"><g><path d="M 39.875 -19.15625 C 39.875 -12.726562 38.296875 -7.84375 35.140625 -4.5 C 31.992188 -1.15625 27.378906 0.515625 21.296875 0.515625 C 15.304688 0.515625 10.710938 -1.160156 7.515625 -4.515625 C 4.316406 -7.878906 2.71875 -12.773438 2.71875 -19.203125 C 2.71875 -25.566406 4.304688 -30.421875 7.484375 -33.765625 C 10.660156 -37.117188 15.28125 -38.796875 21.34375 -38.796875 C 27.425781 -38.796875 32.035156 -37.132812 35.171875 -33.8125 C 38.304688 -30.488281 39.875 -25.601562 39.875 -19.15625 Z M 13.59375 -19.15625 C 13.59375 -11.769531 16.160156 -8.078125 21.296875 -8.078125 C 23.910156 -8.078125 25.847656 -8.972656 27.109375 -10.765625 C 28.367188 -12.554688 29 -15.351562 29 -19.15625 C 29 -22.96875 28.359375 -25.785156 27.078125 -27.609375 C 25.796875 -29.429688 23.882812 -30.34375 21.34375 -30.34375 C 16.175781 -30.34375 13.59375 -26.613281 13.59375 -19.15625 Z M 13.59375 -19.15625 "/></g></g></g><g fill="#ffffff" fill-opacity="1"><g transform="translate(558.944734, 136.688834)"><g><path d="M 22.15625 0 L 22.15625 -16.15625 C 22.15625 -20.125 20.976562 -22.109375 18.625 -22.109375 C 16.957031 -22.109375 15.726562 -21.40625 14.9375 -20 C 14.144531 -18.601562 13.75 -16.273438 13.75 -13.015625 L 13.75 0 L 3.53125 0 L 3.53125 -40.65625 L 13.75 -40.65625 L 13.75 -34.890625 C 13.75 -32.273438 13.609375 -29.296875 13.328125 -25.953125 L 13.796875 -25.953125 C 14.773438 -27.484375 15.929688 -28.5625 17.265625 -29.1875 C 18.609375 -29.8125 20.171875 -30.125 21.953125 -30.125 C 25.265625 -30.125 27.835938 -29.171875 29.671875 -27.265625 C 31.503906 -25.359375 32.421875 -22.691406 32.421875 -19.265625 L 32.421875 0 Z M 22.15625 0 "/></g></g></g><g fill="#ffffff" fill-opacity="1"><g transform="translate(594.793459, 136.688834)"><g/></g></g><g fill="#ffffff" fill-opacity="1"><g transform="translate(608.693985, 136.688834)"><g><path d="M 22.21875 0 L 22.21875 -16.15625 C 22.21875 -18.113281 21.929688 -19.59375 21.359375 -20.59375 C 20.796875 -21.601562 19.882812 -22.109375 18.625 -22.109375 C 16.90625 -22.109375 15.660156 -21.421875 14.890625 -20.046875 C 14.128906 -18.671875 13.75 -16.304688 13.75 -12.953125 L 13.75 0 L 3.53125 0 L 3.53125 -29.609375 L 11.234375 -29.609375 L 12.515625 -25.953125 L 13.125 -25.953125 C 13.988281 -27.335938 15.191406 -28.378906 16.734375 -29.078125 C 18.273438 -29.773438 20.046875 -30.125 22.046875 -30.125 C 25.328125 -30.125 27.875 -29.175781 29.6875 -27.28125 C 31.507812 -25.382812 32.421875 -22.710938 32.421875 -19.265625 L 32.421875 0 Z M 22.21875 0 "/></g></g></g><g fill="#ffffff" fill-opacity="1"><g transform="translate(644.542709, 136.688834)"><g><path d="M 31.796875 -14.875 C 31.796875 -10.03125 30.492188 -6.253906 27.890625 -3.546875 C 25.285156 -0.835938 21.640625 0.515625 16.953125 0.515625 C 12.460938 0.515625 8.890625 -0.863281 6.234375 -3.625 C 3.578125 -6.394531 2.25 -10.144531 2.25 -14.875 C 2.25 -19.695312 3.550781 -23.441406 6.15625 -26.109375 C 8.757812 -28.785156 12.410156 -30.125 17.109375 -30.125 C 20.023438 -30.125 22.597656 -29.503906 24.828125 -28.265625 C 27.054688 -27.035156 28.773438 -25.265625 29.984375 -22.953125 C 31.191406 -20.648438 31.796875 -17.957031 31.796875 -14.875 Z M 12.625 -14.875 C 12.625 -12.320312 12.960938 -10.378906 13.640625 -9.046875 C 14.316406 -7.722656 15.457031 -7.0625 17.0625 -7.0625 C 18.644531 -7.0625 19.765625 -7.722656 20.421875 -9.046875 C 21.078125 -10.378906 21.40625 -12.320312 21.40625 -14.875 C 21.40625 -17.394531 21.070312 -19.300781 20.40625 -20.59375 C 19.75 -21.882812 18.617188 -22.53125 17.015625 -22.53125 C 15.441406 -22.53125 14.316406 -21.890625 13.640625 -20.609375 C 12.960938 -19.328125 12.625 -17.414062 12.625 -14.875 Z M 12.625 -14.875 "/></g></g></g><g fill="#ffffff" fill-opacity="1"><g transform="translate(678.640796, 136.688834)"><g><path d="M 12.09375 -13.484375 L 3.46875 -13.484375 L 2.140625 -38.203125 L 13.4375 -38.203125 Z M 2.25 -4.34375 C 2.25 -5.925781 2.71875 -7.15625 3.65625 -8.03125 C 4.59375 -8.914062 5.960938 -9.359375 7.765625 -9.359375 C 9.535156 -9.359375 10.878906 -8.914062 11.796875 -8.03125 C 12.710938 -7.15625 13.171875 -5.925781 13.171875 -4.34375 C 13.171875 -2.769531 12.695312 -1.539062 11.75 -0.65625 C 10.800781 0.21875 9.472656 0.65625 7.765625 0.65625 C 6.035156 0.65625 4.679688 0.21875 3.703125 -0.65625 C 2.734375 -1.539062 2.25 -2.769531 2.25 -4.34375 Z M 2.25 -4.34375 "/></g></g></g><g fill="#ffffff" fill-opacity="1"><g transform="translate(694.161308, 136.688834)"><g/></g></g><g fill="#ffffff" fill-opacity="1"><g transform="translate(708.061834, 136.688834)"><g><path d="M 17.765625 -24.046875 L 24.359375 -38.203125 L 35.53125 -38.203125 L 22.96875 -14.921875 L 22.96875 0 L 12.5625 0 L 12.5625 -14.609375 L 0 -38.203125 L 11.234375 -38.203125 Z M 17.765625 -24.046875 "/></g></g></g><g fill="#ffffff" fill-opacity="1"><g transform="translate(743.597013, 136.688834)"><g><path d="M 31.796875 -14.875 C 31.796875 -10.03125 30.492188 -6.253906 27.890625 -3.546875 C 25.285156 -0.835938 21.640625 0.515625 16.953125 0.515625 C 12.460938 0.515625 8.890625 -0.863281 6.234375 -3.625 C 3.578125 -6.394531 2.25 -10.144531 2.25 -14.875 C 2.25 -19.695312 3.550781 -23.441406 6.15625 -26.109375 C 8.757812 -28.785156 12.410156 -30.125 17.109375 -30.125 C 20.023438 -30.125 22.597656 -29.503906 24.828125 -28.265625 C 27.054688 -27.035156 28.773438 -25.265625 29.984375 -22.953125 C 31.191406 -20.648438 31.796875 -17.957031 31.796875 -14.875 Z M 12.625 -14.875 C 12.625 -12.320312 12.960938 -10.378906 13.640625 -9.046875 C 14.316406 -7.722656 15.457031 -7.0625 17.0625 -7.0625 C 18.644531 -7.0625 19.765625 -7.722656 20.421875 -9.046875 C 21.078125 -10.378906 21.40625 -12.320312 21.40625 -14.875 C 21.40625 -17.394531 21.070312 -19.300781 20.40625 -20.59375 C 19.75 -21.882812 18.617188 -22.53125 17.015625 -22.53125 C 15.441406 -22.53125 14.316406 -21.890625 13.640625 -20.609375 C 12.960938 -19.328125 12.625 -17.414062 12.625 -14.875 Z M 12.625 -14.875 "/></g></g></g><g fill="#ffffff" fill-opacity="1"><g transform="translate(777.695115, 136.688834)"><g><path d="M 24.609375 0 L 23.328125 -3.6875 L 22.734375 -3.6875 C 21.878906 -2.320312 20.6875 -1.28125 19.15625 -0.5625 C 17.632812 0.15625 15.847656 0.515625 13.796875 0.515625 C 10.535156 0.515625 8 -0.425781 6.1875 -2.3125 C 4.375 -4.195312 3.46875 -6.867188 3.46875 -10.328125 L 3.46875 -29.609375 L 13.6875 -29.609375 L 13.6875 -13.4375 C 13.6875 -11.5 13.960938 -10.03125 14.515625 -9.03125 C 15.066406 -8.039062 15.96875 -7.546875 17.21875 -7.546875 C 18.976562 -7.546875 20.234375 -8.238281 20.984375 -9.625 C 21.734375 -11.007812 22.109375 -13.347656 22.109375 -16.640625 L 22.109375 -29.609375 L 32.328125 -29.609375 L 32.328125 0 Z M 24.609375 0 "/></g></g></g><g fill="#ffffff" fill-opacity="1"><g transform="translate(813.54384, 136.688834)"><g/></g></g><g fill="#ffffff" fill-opacity="1"><g transform="translate(827.444365, 136.688834)"><g><path d="M 17.015625 0.515625 C 12.171875 0.515625 8.5 -0.785156 6 -3.390625 C 3.5 -6.003906 2.25 -9.757812 2.25 -14.65625 C 2.25 -19.570312 3.597656 -23.378906 6.296875 -26.078125 C 8.992188 -28.773438 12.835938 -30.125 17.828125 -30.125 C 21.253906 -30.125 24.484375 -29.375 27.515625 -27.875 L 24.515625 -20.328125 C 23.273438 -20.867188 22.128906 -21.300781 21.078125 -21.625 C 20.035156 -21.945312 18.953125 -22.109375 17.828125 -22.109375 C 16.171875 -22.109375 14.890625 -21.460938 13.984375 -20.171875 C 13.078125 -18.878906 12.625 -17.0625 12.625 -14.71875 C 12.625 -9.976562 14.375 -7.609375 17.875 -7.609375 C 20.875 -7.609375 23.75 -8.476562 26.5 -10.21875 L 26.5 -2.09375 C 23.863281 -0.351562 20.703125 0.515625 17.015625 0.515625 Z M 17.015625 0.515625 "/></g></g></g><g fill="#ffffff" fill-opacity="1"><g transform="translate(856.29057, 136.688834)"><g><path d="M 22.84375 0 L 20.875 -3.921875 L 20.671875 -3.921875 C 19.296875 -2.210938 17.890625 -1.046875 16.453125 -0.421875 C 15.023438 0.203125 13.179688 0.515625 10.921875 0.515625 C 8.128906 0.515625 5.929688 -0.316406 4.328125 -1.984375 C 2.734375 -3.660156 1.9375 -6.015625 1.9375 -9.046875 C 1.9375 -12.191406 3.03125 -14.535156 5.21875 -16.078125 C 7.414062 -17.617188 10.597656 -18.488281 14.765625 -18.6875 L 19.703125 -18.84375 L 19.703125 -19.265625 C 19.703125 -21.703125 18.5 -22.921875 16.09375 -22.921875 C 13.9375 -22.921875 11.191406 -22.1875 7.859375 -20.71875 L 4.90625 -27.46875 C 8.363281 -29.238281 12.722656 -30.125 17.984375 -30.125 C 21.773438 -30.125 24.710938 -29.179688 26.796875 -27.296875 C 28.878906 -25.421875 29.921875 -22.796875 29.921875 -19.421875 L 29.921875 0 Z M 15.265625 -6.6875 C 16.492188 -6.6875 17.546875 -7.078125 18.421875 -7.859375 C 19.304688 -8.648438 19.75 -9.671875 19.75 -10.921875 L 19.75 -13.21875 L 17.40625 -13.125 C 14.039062 -13 12.359375 -11.757812 12.359375 -9.40625 C 12.359375 -7.59375 13.328125 -6.6875 15.265625 -6.6875 Z M 15.265625 -6.6875 "/></g></g></g><g fill="#ffffff" fill-opacity="1"><g transform="translate(889.630929, 136.688834)"><g><path d="M 22.21875 0 L 22.21875 -16.15625 C 22.21875 -18.113281 21.929688 -19.59375 21.359375 -20.59375 C 20.796875 -21.601562 19.882812 -22.109375 18.625 -22.109375 C 16.90625 -22.109375 15.660156 -21.421875 14.890625 -20.046875 C 14.128906 -18.671875 13.75 -16.304688 13.75 -12.953125 L 13.75 0 L 3.53125 0 L 3.53125 -29.609375 L 11.234375 -29.609375 L 12.515625 -25.953125 L 13.125 -25.953125 C 13.988281 -27.335938 15.191406 -28.378906 16.734375 -29.078125 C 18.273438 -29.773438 20.046875 -30.125 22.046875 -30.125 C 25.328125 -30.125 27.875 -29.175781 29.6875 -27.28125 C 31.507812 -25.382812 32.421875 -22.710938 32.421875 -19.265625 L 32.421875 0 Z M 22.21875 0 "/></g></g></g><g fill="#ffffff" fill-opacity="1"><g transform="translate(925.479653, 136.688834)"><g><path d="M 18.03125 -7.546875 C 19.40625 -7.546875 21.050781 -7.890625 22.96875 -8.578125 L 22.96875 -1.125 C 21.59375 -0.53125 20.28125 -0.109375 19.03125 0.140625 C 17.789062 0.390625 16.332031 0.515625 14.65625 0.515625 C 11.226562 0.515625 8.753906 -0.320312 7.234375 -2 C 5.722656 -3.675781 4.96875 -6.257812 4.96875 -9.75 L 4.96875 -21.953125 L 1.390625 -21.953125 L 1.390625 -26.109375 L 5.9375 -29.3125 L 8.578125 -35.53125 L 15.265625 -35.53125 L 15.265625 -29.609375 L 22.53125 -29.609375 L 22.53125 -21.953125 L 15.265625 -21.953125 L 15.265625 -10.421875 C 15.265625 -8.503906 16.1875 -7.546875 18.03125 -7.546875 Z M 18.03125 -7.546875 "/></g></g></g><g fill="#ffffff" fill-opacity="1"><g transform="translate(950.092975, 136.688834)"><g/></g></g><g fill="#ffffff" fill-opacity="1"><g transform="translate(963.993501, 136.688834)"><g><path d="M 22.15625 0 L 22.15625 -16.15625 C 22.15625 -20.125 20.976562 -22.109375 18.625 -22.109375 C 16.957031 -22.109375 15.726562 -21.40625 14.9375 -20 C 14.144531 -18.601562 13.75 -16.273438 13.75 -13.015625 L 13.75 0 L 3.53125 0 L 3.53125 -40.65625 L 13.75 -40.65625 L 13.75 -34.890625 C 13.75 -32.273438 13.609375 -29.296875 13.328125 -25.953125 L 13.796875 -25.953125 C 14.773438 -27.484375 15.929688 -28.5625 17.265625 -29.1875 C 18.609375 -29.8125 20.171875 -30.125 21.953125 -30.125 C 25.265625 -30.125 27.835938 -29.171875 29.671875 -27.265625 C 31.503906 -25.359375 32.421875 -22.691406 32.421875 -19.265625 L 32.421875 0 Z M 22.15625 0 "/></g></g></g><g fill="#ffffff" fill-opacity="1"><g transform="translate(999.842225, 136.688834)"><g><path d="M 22.84375 0 L 20.875 -3.921875 L 20.671875 -3.921875 C 19.296875 -2.210938 17.890625 -1.046875 16.453125 -0.421875 C 15.023438 0.203125 13.179688 0.515625 10.921875 0.515625 C 8.128906 0.515625 5.929688 -0.316406 4.328125 -1.984375 C 2.734375 -3.660156 1.9375 -6.015625 1.9375 -9.046875 C 1.9375 -12.191406 3.03125 -14.535156 5.21875 -16.078125 C 7.414062 -17.617188 10.597656 -18.488281 14.765625 -18.6875 L 19.703125 -18.84375 L 19.703125 -19.265625 C 19.703125 -21.703125 18.5 -22.921875 16.09375 -22.921875 C 13.9375 -22.921875 11.191406 -22.1875 7.859375 -20.71875 L 4.90625 -27.46875 C 8.363281 -29.238281 12.722656 -30.125 17.984375 -30.125 C 21.773438 -30.125 24.710938 -29.179688 26.796875 -27.296875 C 28.878906 -25.421875 29.921875 -22.796875 29.921875 -19.421875 L 29.921875 0 Z M 15.265625 -6.6875 C 16.492188 -6.6875 17.546875 -7.078125 18.421875 -7.859375 C 19.304688 -8.648438 19.75 -9.671875 19.75 -10.921875 L 19.75 -13.21875 L 17.40625 -13.125 C 14.039062 -13 12.359375 -11.757812 12.359375 -9.40625 C 12.359375 -7.59375 13.328125 -6.6875 15.265625 -6.6875 Z M 15.265625 -6.6875 "/></g></g></g><g fill="#ffffff" fill-opacity="1"><g transform="translate(1033.182615, 136.688834)"><g><path d="M 11.28125 0 L 0 -29.609375 L 10.65625 -29.609375 L 15.671875 -12.09375 C 15.691406 -12.007812 15.726562 -11.863281 15.78125 -11.65625 C 15.832031 -11.445312 15.882812 -11.195312 15.9375 -10.90625 C 15.988281 -10.625 16.035156 -10.320312 16.078125 -10 C 16.128906 -9.675781 16.15625 -9.375 16.15625 -9.09375 L 16.328125 -9.09375 C 16.328125 -10 16.484375 -10.984375 16.796875 -12.046875 L 22.046875 -29.609375 L 32.6875 -29.609375 L 21.40625 0 Z M 11.28125 0 "/></g></g></g><g fill="#ffffff" fill-opacity="1"><g transform="translate(1065.869761, 136.688834)"><g><path d="M 17.828125 0.515625 C 12.890625 0.515625 9.054688 -0.789062 6.328125 -3.40625 C 3.609375 -6.03125 2.25 -9.765625 2.25 -14.609375 C 2.25 -19.609375 3.507812 -23.441406 6.03125 -26.109375 C 8.5625 -28.785156 12.171875 -30.125 16.859375 -30.125 C 21.316406 -30.125 24.757812 -28.960938 27.1875 -26.640625 C 29.613281 -24.316406 30.828125 -20.96875 30.828125 -16.59375 L 30.828125 -12.046875 L 12.5625 -12.046875 C 12.632812 -10.390625 13.238281 -9.085938 14.375 -8.140625 C 15.519531 -7.203125 17.078125 -6.734375 19.046875 -6.734375 C 20.835938 -6.734375 22.488281 -6.90625 24 -7.25 C 25.507812 -7.59375 27.144531 -8.171875 28.90625 -8.984375 L 28.90625 -1.640625 C 27.300781 -0.828125 25.644531 -0.265625 23.9375 0.046875 C 22.226562 0.359375 20.191406 0.515625 17.828125 0.515625 Z M 17.21875 -23.171875 C 16.019531 -23.171875 15.015625 -22.789062 14.203125 -22.03125 C 13.390625 -21.28125 12.914062 -20.09375 12.78125 -18.46875 L 21.5625 -18.46875 C 21.519531 -19.894531 21.113281 -21.035156 20.34375 -21.890625 C 19.570312 -22.742188 18.53125 -23.171875 17.21875 -23.171875 Z M 17.21875 -23.171875 "/></g></g></g><g fill="#ffffff" fill-opacity="1"><g transform="translate(459.796067, 211.445428)"><g><path d="M 18.03125 -7.546875 C 19.40625 -7.546875 21.050781 -7.890625 22.96875 -8.578125 L 22.96875 -1.125 C 21.59375 -0.53125 20.28125 -0.109375 19.03125 0.140625 C 17.789062 0.390625 16.332031 0.515625 14.65625 0.515625 C 11.226562 0.515625 8.753906 -0.320312 7.234375 -2 C 5.722656 -3.675781 4.96875 -6.257812 4.96875 -9.75 L 4.96875 -21.953125 L 1.390625 -21.953125 L 1.390625 -26.109375 L 5.9375 -29.3125 L 8.578125 -35.53125 L 15.265625 -35.53125 L 15.265625 -29.609375 L 22.53125 -29.609375 L 22.53125 -21.953125 L 15.265625 -21.953125 L 15.265625 -10.421875 C 15.265625 -8.503906 16.1875 -7.546875 18.03125 -7.546875 Z M 18.03125 -7.546875 "/></g></g></g><g fill="#ffffff" fill-opacity="1"><g transform="translate(484.409404, 211.445428)"><g><path d="M 22.15625 0 L 22.15625 -16.15625 C 22.15625 -20.125 20.976562 -22.109375 18.625 -22.109375 C 16.957031 -22.109375 15.726562 -21.40625 14.9375 -20 C 14.144531 -18.601562 13.75 -16.273438 13.75 -13.015625 L 13.75 0 L 3.53125 0 L 3.53125 -40.65625 L 13.75 -40.65625 L 13.75 -34.890625 C 13.75 -32.273438 13.609375 -29.296875 13.328125 -25.953125 L 13.796875 -25.953125 C 14.773438 -27.484375 15.929688 -28.5625 17.265625 -29.1875 C 18.609375 -29.8125 20.171875 -30.125 21.953125 -30.125 C 25.265625 -30.125 27.835938 -29.171875 29.671875 -27.265625 C 31.503906 -25.359375 32.421875 -22.691406 32.421875 -19.265625 L 32.421875 0 Z M 22.15625 0 "/></g></g></g><g fill="#ffffff" fill-opacity="1"><g transform="translate(520.258129, 211.445428)"><g><path d="M 22.84375 0 L 20.875 -3.921875 L 20.671875 -3.921875 C 19.296875 -2.210938 17.890625 -1.046875 16.453125 -0.421875 C 15.023438 0.203125 13.179688 0.515625 10.921875 0.515625 C 8.128906 0.515625 5.929688 -0.316406 4.328125 -1.984375 C 2.734375 -3.660156 1.9375 -6.015625 1.9375 -9.046875 C 1.9375 -12.191406 3.03125 -14.535156 5.21875 -16.078125 C 7.414062 -17.617188 10.597656 -18.488281 14.765625 -18.6875 L 19.703125 -18.84375 L 19.703125 -19.265625 C 19.703125 -21.703125 18.5 -22.921875 16.09375 -22.921875 C 13.9375 -22.921875 11.191406 -22.1875 7.859375 -20.71875 L 4.90625 -27.46875 C 8.363281 -29.238281 12.722656 -30.125 17.984375 -30.125 C 21.773438 -30.125 24.710938 -29.179688 26.796875 -27.296875 C 28.878906 -25.421875 29.921875 -22.796875 29.921875 -19.421875 L 29.921875 0 Z M 15.265625 -6.6875 C 16.492188 -6.6875 17.546875 -7.078125 18.421875 -7.859375 C 19.304688 -8.648438 19.75 -9.671875 19.75 -10.921875 L 19.75 -13.21875 L 17.40625 -13.125 C 14.039062 -13 12.359375 -11.757812 12.359375 -9.40625 C 12.359375 -7.59375 13.328125 -6.6875 15.265625 -6.6875 Z M 15.265625 -6.6875 "/></g></g></g><g fill="#ffffff" fill-opacity="1"><g transform="translate(553.598488, 211.445428)"><g><path d="M 18.03125 -7.546875 C 19.40625 -7.546875 21.050781 -7.890625 22.96875 -8.578125 L 22.96875 -1.125 C 21.59375 -0.53125 20.28125 -0.109375 19.03125 0.140625 C 17.789062 0.390625 16.332031 0.515625 14.65625 0.515625 C 11.226562 0.515625 8.753906 -0.320312 7.234375 -2 C 5.722656 -3.675781 4.96875 -6.257812 4.96875 -9.75 L 4.96875 -21.953125 L 1.390625 -21.953125 L 1.390625 -26.109375 L 5.9375 -29.3125 L 8.578125 -35.53125 L 15.265625 -35.53125 L 15.265625 -29.609375 L 22.53125 -29.609375 L 22.53125 -21.953125 L 15.265625 -21.953125 L 15.265625 -10.421875 C 15.265625 -8.503906 16.1875 -7.546875 18.03125 -7.546875 Z M 18.03125 -7.546875 "/></g></g></g><g fill="#ffffff" fill-opacity="1"><g transform="translate(578.211825, 211.445428)"><g/></g></g><g fill="#ffffff" fill-opacity="1"><g transform="translate(592.112351, 211.445428)"><g><path d="M 24.609375 0 L 23.328125 -3.6875 L 22.734375 -3.6875 C 21.878906 -2.320312 20.6875 -1.28125 19.15625 -0.5625 C 17.632812 0.15625 15.847656 0.515625 13.796875 0.515625 C 10.535156 0.515625 8 -0.425781 6.1875 -2.3125 C 4.375 -4.195312 3.46875 -6.867188 3.46875 -10.328125 L 3.46875 -29.609375 L 13.6875 -29.609375 L 13.6875 -13.4375 C 13.6875 -11.5 13.960938 -10.03125 14.515625 -9.03125 C 15.066406 -8.039062 15.96875 -7.546875 17.21875 -7.546875 C 18.976562 -7.546875 20.234375 -8.238281 20.984375 -9.625 C 21.734375 -11.007812 22.109375 -13.347656 22.109375 -16.640625 L 22.109375 -29.609375 L 32.328125 -29.609375 L 32.328125 0 Z M 24.609375 0 "/></g></g></g><g fill="#ffffff" fill-opacity="1"><g transform="translate(627.961076, 211.445428)"><g><path d="M 26.390625 -9.09375 C 26.390625 -5.925781 25.304688 -3.53125 23.140625 -1.90625 C 20.984375 -0.289062 17.882812 0.515625 13.84375 0.515625 C 11.65625 0.515625 9.75 0.394531 8.125 0.15625 C 6.507812 -0.0703125 4.851562 -0.5 3.15625 -1.125 L 3.15625 -9.296875 C 4.75 -8.597656 6.488281 -8.023438 8.375 -7.578125 C 10.257812 -7.128906 11.945312 -6.90625 13.4375 -6.90625 C 15.644531 -6.90625 16.75 -7.410156 16.75 -8.421875 C 16.75 -8.941406 16.4375 -9.40625 15.8125 -9.8125 C 15.195312 -10.21875 13.398438 -11.015625 10.421875 -12.203125 C 7.703125 -13.316406 5.800781 -14.582031 4.71875 -16 C 3.644531 -17.425781 3.109375 -19.226562 3.109375 -21.40625 C 3.109375 -24.15625 4.171875 -26.296875 6.296875 -27.828125 C 8.421875 -29.359375 11.425781 -30.125 15.3125 -30.125 C 17.257812 -30.125 19.09375 -29.910156 20.8125 -29.484375 C 22.53125 -29.054688 24.3125 -28.4375 26.15625 -27.625 L 23.390625 -21.03125 C 22.023438 -21.644531 20.582031 -22.164062 19.0625 -22.59375 C 17.550781 -23.019531 16.316406 -23.234375 15.359375 -23.234375 C 13.691406 -23.234375 12.859375 -22.820312 12.859375 -22 C 12.859375 -21.5 13.148438 -21.066406 13.734375 -20.703125 C 14.316406 -20.347656 16 -19.625 18.78125 -18.53125 C 20.851562 -17.675781 22.398438 -16.835938 23.421875 -16.015625 C 24.441406 -15.203125 25.191406 -14.238281 25.671875 -13.125 C 26.148438 -12.019531 26.390625 -10.675781 26.390625 -9.09375 Z M 26.390625 -9.09375 "/></g></g></g><g fill="#ffffff" fill-opacity="1"><g transform="translate(656.493734, 211.445428)"><g><path d="M 17.828125 0.515625 C 12.890625 0.515625 9.054688 -0.789062 6.328125 -3.40625 C 3.609375 -6.03125 2.25 -9.765625 2.25 -14.609375 C 2.25 -19.609375 3.507812 -23.441406 6.03125 -26.109375 C 8.5625 -28.785156 12.171875 -30.125 16.859375 -30.125 C 21.316406 -30.125 24.757812 -28.960938 27.1875 -26.640625 C 29.613281 -24.316406 30.828125 -20.96875 30.828125 -16.59375 L 30.828125 -12.046875 L 12.5625 -12.046875 C 12.632812 -10.390625 13.238281 -9.085938 14.375 -8.140625 C 15.519531 -7.203125 17.078125 -6.734375 19.046875 -6.734375 C 20.835938 -6.734375 22.488281 -6.90625 24 -7.25 C 25.507812 -7.59375 27.144531 -8.171875 28.90625 -8.984375 L 28.90625 -1.640625 C 27.300781 -0.828125 25.644531 -0.265625 23.9375 0.046875 C 22.226562 0.359375 20.191406 0.515625 17.828125 0.515625 Z M 17.21875 -23.171875 C 16.019531 -23.171875 15.015625 -22.789062 14.203125 -22.03125 C 13.390625 -21.28125 12.914062 -20.09375 12.78125 -18.46875 L 21.5625 -18.46875 C 21.519531 -19.894531 21.113281 -21.035156 20.34375 -21.890625 C 19.570312 -22.742188 18.53125 -23.171875 17.21875 -23.171875 Z M 17.21875 -23.171875 "/></g></g></g><g fill="#ffffff" fill-opacity="1"><g transform="translate(689.572805, 211.445428)"><g><path d="M 21.40625 -30.125 C 22.289062 -30.125 23.132812 -30.054688 23.9375 -29.921875 L 24.515625 -29.8125 L 23.59375 -20.171875 C 22.757812 -20.378906 21.601562 -20.484375 20.125 -20.484375 C 17.894531 -20.484375 16.273438 -19.972656 15.265625 -18.953125 C 14.253906 -17.929688 13.75 -16.46875 13.75 -14.5625 L 13.75 0 L 3.53125 0 L 3.53125 -29.609375 L 11.125 -29.609375 L 12.71875 -24.875 L 13.21875 -24.875 C 14.070312 -26.445312 15.257812 -27.710938 16.78125 -28.671875 C 18.3125 -29.640625 19.851562 -30.125 21.40625 -30.125 Z M 21.40625 -30.125 "/></g></g></g><g fill="#ffffff" fill-opacity="1"><g transform="translate(714.682598, 211.445428)"><g><path d="M 22.21875 0 L 22.21875 -16.15625 C 22.21875 -18.113281 21.929688 -19.59375 21.359375 -20.59375 C 20.796875 -21.601562 19.882812 -22.109375 18.625 -22.109375 C 16.90625 -22.109375 15.660156 -21.421875 14.890625 -20.046875 C 14.128906 -18.671875 13.75 -16.304688 13.75 -12.953125 L 13.75 0 L 3.53125 0 L 3.53125 -29.609375 L 11.234375 -29.609375 L 12.515625 -25.953125 L 13.125 -25.953125 C 13.988281 -27.335938 15.191406 -28.378906 16.734375 -29.078125 C 18.273438 -29.773438 20.046875 -30.125 22.046875 -30.125 C 25.328125 -30.125 27.875 -29.175781 29.6875 -27.28125 C 31.507812 -25.382812 32.421875 -22.710938 32.421875 -19.265625 L 32.421875 0 Z M 22.21875 0 "/></g></g></g><g fill="#ffffff" fill-opacity="1"><g transform="translate(750.531322, 211.445428)"><g><path d="M 22.84375 0 L 20.875 -3.921875 L 20.671875 -3.921875 C 19.296875 -2.210938 17.890625 -1.046875 16.453125 -0.421875 C 15.023438 0.203125 13.179688 0.515625 10.921875 0.515625 C 8.128906 0.515625 5.929688 -0.316406 4.328125 -1.984375 C 2.734375 -3.660156 1.9375 -6.015625 1.9375 -9.046875 C 1.9375 -12.191406 3.03125 -14.535156 5.21875 -16.078125 C 7.414062 -17.617188 10.597656 -18.488281 14.765625 -18.6875 L 19.703125 -18.84375 L 19.703125 -19.265625 C 19.703125 -21.703125 18.5 -22.921875 16.09375 -22.921875 C 13.9375 -22.921875 11.191406 -22.1875 7.859375 -20.71875 L 4.90625 -27.46875 C 8.363281 -29.238281 12.722656 -30.125 17.984375 -30.125 C 21.773438 -30.125 24.710938 -29.179688 26.796875 -27.296875 C 28.878906 -25.421875 29.921875 -22.796875 29.921875 -19.421875 L 29.921875 0 Z M 15.265625 -6.6875 C 16.492188 -6.6875 17.546875 -7.078125 18.421875 -7.859375 C 19.304688 -8.648438 19.75 -9.671875 19.75 -10.921875 L 19.75 -13.21875 L 17.40625 -13.125 C 14.039062 -13 12.359375 -11.757812 12.359375 -9.40625 C 12.359375 -7.59375 13.328125 -6.6875 15.265625 -6.6875 Z M 15.265625 -6.6875 "/></g></g></g><g fill="#ffffff" fill-opacity="1"><g transform="translate(783.871681, 211.445428)"><g><path d="M 39.875 0 L 39.875 -16.09375 C 39.875 -18.09375 39.597656 -19.59375 39.046875 -20.59375 C 38.503906 -21.601562 37.640625 -22.109375 36.453125 -22.109375 C 34.878906 -22.109375 33.726562 -21.4375 33 -20.09375 C 32.269531 -18.75 31.90625 -16.648438 31.90625 -13.796875 L 31.90625 0 L 21.65625 0 L 21.65625 -16.09375 C 21.65625 -18.09375 21.394531 -19.59375 20.875 -20.59375 C 20.351562 -21.601562 19.507812 -22.109375 18.34375 -22.109375 C 16.738281 -22.109375 15.570312 -21.394531 14.84375 -19.96875 C 14.113281 -18.539062 13.75 -16.203125 13.75 -12.953125 L 13.75 0 L 3.53125 0 L 3.53125 -29.609375 L 11.234375 -29.609375 L 12.515625 -25.953125 L 13.125 -25.953125 C 13.90625 -27.304688 15.039062 -28.335938 16.53125 -29.046875 C 18.019531 -29.765625 19.710938 -30.125 21.609375 -30.125 C 25.878906 -30.125 28.875 -28.828125 30.59375 -26.234375 L 31.40625 -26.234375 C 32.238281 -27.453125 33.398438 -28.40625 34.890625 -29.09375 C 36.378906 -29.78125 38.023438 -30.125 39.828125 -30.125 C 43.328125 -30.125 45.910156 -29.226562 47.578125 -27.4375 C 49.253906 -25.644531 50.09375 -22.921875 50.09375 -19.265625 L 50.09375 0 Z M 39.875 0 "/></g></g></g><g fill="#ffffff" fill-opacity="1"><g transform="translate(837.38348, 211.445428)"><g><path d="M 17.828125 0.515625 C 12.890625 0.515625 9.054688 -0.789062 6.328125 -3.40625 C 3.609375 -6.03125 2.25 -9.765625 2.25 -14.609375 C 2.25 -19.609375 3.507812 -23.441406 6.03125 -26.109375 C 8.5625 -28.785156 12.171875 -30.125 16.859375 -30.125 C 21.316406 -30.125 24.757812 -28.960938 27.1875 -26.640625 C 29.613281 -24.316406 30.828125 -20.96875 30.828125 -16.59375 L 30.828125 -12.046875 L 12.5625 -12.046875 C 12.632812 -10.390625 13.238281 -9.085938 14.375 -8.140625 C 15.519531 -7.203125 17.078125 -6.734375 19.046875 -6.734375 C 20.835938 -6.734375 22.488281 -6.90625 24 -7.25 C 25.507812 -7.59375 27.144531 -8.171875 28.90625 -8.984375 L 28.90625 -1.640625 C 27.300781 -0.828125 25.644531 -0.265625 23.9375 0.046875 C 22.226562 0.359375 20.191406 0.515625 17.828125 0.515625 Z M 17.21875 -23.171875 C 16.019531 -23.171875 15.015625 -22.789062 14.203125 -22.03125 C 13.390625 -21.28125 12.914062 -20.09375 12.78125 -18.46875 L 21.5625 -18.46875 C 21.519531 -19.894531 21.113281 -21.035156 20.34375 -21.890625 C 19.570312 -22.742188 18.53125 -23.171875 17.21875 -23.171875 Z M 17.21875 -23.171875 "/></g></g></g><g fill="#ffffff" fill-opacity="1"><g transform="translate(870.462536, 211.445428)"><g><path d="M 2.25 -4.34375 C 2.25 -5.9375 2.722656 -7.171875 3.671875 -8.046875 C 4.617188 -8.921875 6 -9.359375 7.8125 -9.359375 C 9.539062 -9.359375 10.863281 -8.921875 11.78125 -8.046875 C 12.707031 -7.171875 13.171875 -5.9375 13.171875 -4.34375 C 13.171875 -2.769531 12.695312 -1.539062 11.75 -0.65625 C 10.800781 0.21875 9.488281 0.65625 7.8125 0.65625 C 6.082031 0.65625 4.722656 0.222656 3.734375 -0.640625 C 2.742188 -1.515625 2.25 -2.75 2.25 -4.34375 Z M 2.25 -4.34375 "/></g></g></g><g fill="#ffffff" fill-opacity="1"><g transform="translate(885.93079, 211.445428)"><g/></g></g><g fill="#ffffff" fill-opacity="1"><g transform="translate(899.831315, 211.445428)"><g><path d="M 20.984375 0 L 10.65625 0 L 10.65625 -29.765625 L 1.328125 -29.765625 L 1.328125 -38.203125 L 30.28125 -38.203125 L 30.28125 -29.765625 L 20.984375 -29.765625 Z M 20.984375 0 "/></g></g></g><g fill="#ffffff" fill-opacity="1"><g transform="translate(931.447188, 211.445428)"><g><path d="M 21.40625 -30.125 C 22.289062 -30.125 23.132812 -30.054688 23.9375 -29.921875 L 24.515625 -29.8125 L 23.59375 -20.171875 C 22.757812 -20.378906 21.601562 -20.484375 20.125 -20.484375 C 17.894531 -20.484375 16.273438 -19.972656 15.265625 -18.953125 C 14.253906 -17.929688 13.75 -16.46875 13.75 -14.5625 L 13.75 0 L 3.53125 0 L 3.53125 -29.609375 L 11.125 -29.609375 L 12.71875 -24.875 L 13.21875 -24.875 C 14.070312 -26.445312 15.257812 -27.710938 16.78125 -28.671875 C 18.3125 -29.640625 19.851562 -30.125 21.40625 -30.125 Z M 21.40625 -30.125 "/></g></g></g><g fill="#ffffff" fill-opacity="1"><g transform="translate(956.556965, 211.445428)"><g><path d="M -0.046875 -29.609375 L 10.71875 -29.609375 L 15.734375 -12.625 C 15.972656 -11.726562 16.140625 -10.65625 16.234375 -9.40625 L 16.4375 -9.40625 C 16.570312 -10.601562 16.78125 -11.65625 17.0625 -12.5625 L 22.21875 -29.609375 L 32.640625 -29.609375 L 20.9375 1.875 C 19.4375 5.882812 17.59375 8.71875 15.40625 10.375 C 13.21875 12.03125 10.363281 12.859375 6.84375 12.859375 C 5.488281 12.859375 4.097656 12.707031 2.671875 12.40625 L 2.671875 4.390625 C 3.585938 4.597656 4.640625 4.703125 5.828125 4.703125 C 6.734375 4.703125 7.523438 4.523438 8.203125 4.171875 C 8.878906 3.828125 9.46875 3.335938 9.96875 2.703125 C 10.476562 2.066406 11.023438 1.023438 11.609375 -0.421875 Z M -0.046875 -29.609375 "/></g></g></g><g fill="#ffffff" fill-opacity="1"><g transform="translate(989.191838, 211.445428)"><g/></g></g><g fill="#ffffff" fill-opacity="1"><g transform="translate(1003.092395, 211.445428)"><g><path d="M 22.84375 0 L 20.875 -3.921875 L 20.671875 -3.921875 C 19.296875 -2.210938 17.890625 -1.046875 16.453125 -0.421875 C 15.023438 0.203125 13.179688 0.515625 10.921875 0.515625 C 8.128906 0.515625 5.929688 -0.316406 4.328125 -1.984375 C 2.734375 -3.660156 1.9375 -6.015625 1.9375 -9.046875 C 1.9375 -12.191406 3.03125 -14.535156 5.21875 -16.078125 C 7.414062 -17.617188 10.597656 -18.488281 14.765625 -18.6875 L 19.703125 -18.84375 L 19.703125 -19.265625 C 19.703125 -21.703125 18.5 -22.921875 16.09375 -22.921875 C 13.9375 -22.921875 11.191406 -22.1875 7.859375 -20.71875 L 4.90625 -27.46875 C 8.363281 -29.238281 12.722656 -30.125 17.984375 -30.125 C 21.773438 -30.125 24.710938 -29.179688 26.796875 -27.296875 C 28.878906 -25.421875 29.921875 -22.796875 29.921875 -19.421875 L 29.921875 0 Z M 15.265625 -6.6875 C 16.492188 -6.6875 17.546875 -7.078125 18.421875 -7.859375 C 19.304688 -8.648438 19.75 -9.671875 19.75 -10.921875 L 19.75 -13.21875 L 17.40625 -13.125 C 14.039062 -13 12.359375 -11.757812 12.359375 -9.40625 C 12.359375 -7.59375 13.328125 -6.6875 15.265625 -6.6875 Z M 15.265625 -6.6875 "/></g></g></g><g fill="#ffffff" fill-opacity="1"><g transform="translate(1036.432784, 211.445428)"><g><path d="M 31.46875 -29.609375 L 31.46875 -24.671875 L 27.40625 -23.171875 C 27.96875 -22.160156 28.25 -20.988281 28.25 -19.65625 C 28.25 -16.46875 27.128906 -13.992188 24.890625 -12.234375 C 22.648438 -10.472656 19.3125 -9.59375 14.875 -9.59375 C 13.769531 -9.59375 12.894531 -9.660156 12.25 -9.796875 C 12.007812 -9.347656 11.890625 -8.921875 11.890625 -8.515625 C 11.890625 -8.015625 12.296875 -7.628906 13.109375 -7.359375 C 13.929688 -7.085938 15.003906 -6.953125 16.328125 -6.953125 L 21.25 -6.953125 C 27.882812 -6.953125 31.203125 -4.15625 31.203125 1.4375 C 31.203125 5.039062 29.660156 7.84375 26.578125 9.84375 C 23.503906 11.851562 19.191406 12.859375 13.640625 12.859375 C 9.441406 12.859375 6.203125 12.15625 3.921875 10.75 C 1.648438 9.351562 0.515625 7.335938 0.515625 4.703125 C 0.515625 1.171875 2.710938 -1.109375 7.109375 -2.140625 C 6.203125 -2.523438 5.410156 -3.144531 4.734375 -4 C 4.066406 -4.851562 3.734375 -5.695312 3.734375 -6.53125 C 3.734375 -7.457031 3.984375 -8.269531 4.484375 -8.96875 C 4.992188 -9.675781 6.050781 -10.519531 7.65625 -11.5 C 6.125 -12.175781 4.914062 -13.238281 4.03125 -14.6875 C 3.15625 -16.132812 2.71875 -17.894531 2.71875 -19.96875 C 2.71875 -23.1875 3.8125 -25.679688 6 -27.453125 C 8.195312 -29.234375 11.335938 -30.125 15.421875 -30.125 C 15.960938 -30.125 16.894531 -30.0625 18.21875 -29.9375 C 19.539062 -29.820312 20.515625 -29.710938 21.140625 -29.609375 Z M 9.140625 3.6875 C 9.140625 4.519531 9.59375 5.191406 10.5 5.703125 C 11.40625 6.222656 12.617188 6.484375 14.140625 6.484375 C 16.609375 6.484375 18.585938 6.171875 20.078125 5.546875 C 21.566406 4.929688 22.3125 4.132812 22.3125 3.15625 C 22.3125 2.375 21.859375 1.820312 20.953125 1.5 C 20.046875 1.175781 18.75 1.015625 17.0625 1.015625 L 13.0625 1.015625 C 11.96875 1.015625 11.039062 1.269531 10.28125 1.78125 C 9.519531 2.300781 9.140625 2.9375 9.140625 3.6875 Z M 12.359375 -19.90625 C 12.359375 -16.875 13.410156 -15.359375 15.515625 -15.359375 C 16.492188 -15.359375 17.25 -15.734375 17.78125 -16.484375 C 18.3125 -17.234375 18.578125 -18.359375 18.578125 -19.859375 C 18.578125 -22.921875 17.554688 -24.453125 15.515625 -24.453125 C 13.410156 -24.453125 12.359375 -22.9375 12.359375 -19.90625 Z M 12.359375 -19.90625 "/></g></g></g><g fill="#ffffff" fill-opacity="1"><g transform="translate(1068.858658, 211.445428)"><g><path d="M 22.84375 0 L 20.875 -3.921875 L 20.671875 -3.921875 C 19.296875 -2.210938 17.890625 -1.046875 16.453125 -0.421875 C 15.023438 0.203125 13.179688 0.515625 10.921875 0.515625 C 8.128906 0.515625 5.929688 -0.316406 4.328125 -1.984375 C 2.734375 -3.660156 1.9375 -6.015625 1.9375 -9.046875 C 1.9375 -12.191406 3.03125 -14.535156 5.21875 -16.078125 C 7.414062 -17.617188 10.597656 -18.488281 14.765625 -18.6875 L 19.703125 -18.84375 L 19.703125 -19.265625 C 19.703125 -21.703125 18.5 -22.921875 16.09375 -22.921875 C 13.9375 -22.921875 11.191406 -22.1875 7.859375 -20.71875 L 4.90625 -27.46875 C 8.363281 -29.238281 12.722656 -30.125 17.984375 -30.125 C 21.773438 -30.125 24.710938 -29.179688 26.796875 -27.296875 C 28.878906 -25.421875 29.921875 -22.796875 29.921875 -19.421875 L 29.921875 0 Z M 15.265625 -6.6875 C 16.492188 -6.6875 17.546875 -7.078125 18.421875 -7.859375 C 19.304688 -8.648438 19.75 -9.671875 19.75 -10.921875 L 19.75 -13.21875 L 17.40625 -13.125 C 14.039062 -13 12.359375 -11.757812 12.359375 -9.40625 C 12.359375 -7.59375 13.328125 -6.6875 15.265625 -6.6875 Z M 15.265625 -6.6875 "/></g></g></g><g fill="#ffffff" fill-opacity="1"><g transform="translate(1102.199047, 211.445428)"><g><path d="M 13.796875 0 L 3.578125 0 L 3.578125 -29.609375 L 13.796875 -29.609375 Z M 3.3125 -36.96875 C 3.3125 -38.507812 3.738281 -39.648438 4.59375 -40.390625 C 5.445312 -41.140625 6.828125 -41.515625 8.734375 -41.515625 C 10.628906 -41.515625 12.007812 -41.128906 12.875 -40.359375 C 13.75 -39.597656 14.1875 -38.46875 14.1875 -36.96875 C 14.1875 -33.976562 12.367188 -32.484375 8.734375 -32.484375 C 5.117188 -32.484375 3.3125 -33.976562 3.3125 -36.96875 Z M 3.3125 -36.96875 "/></g></g></g><g fill="#ffffff" fill-opacity="1"><g transform="translate(1119.600818, 211.445428)"><g><path d="M 22.21875 0 L 22.21875 -16.15625 C 22.21875 -18.113281 21.929688 -19.59375 21.359375 -20.59375 C 20.796875 -21.601562 19.882812 -22.109375 18.625 -22.109375 C 16.90625 -22.109375 15.660156 -21.421875 14.890625 -20.046875 C 14.128906 -18.671875 13.75 -16.304688 13.75 -12.953125 L 13.75 0 L 3.53125 0 L 3.53125 -29.609375 L 11.234375 -29.609375 L 12.515625 -25.953125 L 13.125 -25.953125 C 13.988281 -27.335938 15.191406 -28.378906 16.734375 -29.078125 C 18.273438 -29.773438 20.046875 -30.125 22.046875 -30.125 C 25.328125 -30.125 27.875 -29.175781 29.6875 -27.28125 C 31.507812 -25.382812 32.421875 -22.710938 32.421875 -19.265625 L 32.421875 0 Z M 22.21875 0 "/></g></g></g></svg>